<svg xmlns="http://www.w3.org/2000/svg" viewBox="0 0 168 168" id="web-coding">
  <path fill="#2d4356" d="M90.09953 45.91342a3 3 0 1 0-3-3A3.00344 3.00344 0 0 0 90.09953 45.91342zm0-4.5a1.5 1.5 0 1 1-1.5 1.5A1.50148 1.50148 0 0 1 90.09953 41.41342zM158.30471 67.5a2 2 0 1 0 2 2A2.00229 2.00229 0 0 0 158.30471 67.5zm0 3a1 1 0 1 1 1-1A1.001 1.001 0 0 1 158.30471 70.5zM64 4.5a2 2 0 1 0 2 2A2.00229 2.00229 0 0 0 64 4.5zm0 3a1 1 0 1 1 1-1A1.001 1.001 0 0 1 64 7.5zM158.30471 8.5a2 2 0 1 0 2 2A2.00229 2.00229 0 0 0 158.30471 8.5zm0 3a1 1 0 1 1 1-1A1.001 1.001 0 0 1 158.30471 11.5zM17.30471 26.5a2 2 0 1 0-2 2A2.00229 2.00229 0 0 0 17.30471 26.5zm-3 0a1 1 0 1 1 1 1A1.001 1.001 0 0 1 14.30471 26.5z"></path>
  <polygon fill="#0bceb2" points="10.888 67.511 12.375 65.556 11.436 65.024 10.481 67.214 10.45 67.214 9.48 65.039 8.525 65.587 9.996 67.496 9.996 67.527 7.695 67.23 7.695 68.294 10.011 67.997 10.011 68.028 8.525 69.936 9.416 70.5 10.434 68.294 10.465 68.294 11.404 70.484 12.39 69.921 10.888 68.043 10.888 68.012 13.25 68.294 13.25 67.23 10.888 67.542 10.888 67.511"></polygon>
  <polygon fill="#0bceb2" points="43.735 30.576 42.878 31.675 43.392 32 43.978 30.729 43.996 30.729 44.536 31.991 45.104 31.667 44.239 30.585 44.239 30.567 45.599 30.729 45.599 30.117 44.239 30.297 44.239 30.279 45.095 29.153 44.555 28.846 44.005 30.108 43.987 30.108 43.429 28.855 42.878 29.171 43.726 30.27 43.726 30.288 42.401 30.117 42.401 30.729 43.735 30.558 43.735 30.576"></polygon>
  <polygon fill="#0bceb2" points="155.305 46.213 155.305 45.17 152.988 45.477 152.988 45.446 154.446 43.528 153.525 43.006 152.589 45.154 152.558 45.154 151.607 43.021 150.67 43.559 152.113 45.431 152.113 45.462 149.856 45.17 149.856 46.213 152.128 45.922 152.128 45.953 150.67 47.825 151.545 48.378 152.543 46.213 152.573 46.213 153.494 48.362 154.461 47.81 152.988 45.968 152.988 45.937 155.305 46.213"></polygon>
  <polygon fill="#0bceb2" points="121.448 22.719 122.706 21.065 121.911 20.615 121.104 22.468 121.077 22.468 120.257 20.628 119.448 21.091 120.693 22.706 120.693 22.733 118.746 22.481 118.746 23.381 120.706 23.13 120.706 23.156 119.448 24.771 120.203 25.248 121.064 23.381 121.09 23.381 121.884 25.235 122.718 24.758 121.448 23.169 121.448 23.143 123.446 23.381 123.446 22.481 121.448 22.746 121.448 22.719"></polygon>
  <circle cx="2" cy="147.5" r="2" fill="#2d4356"></circle>
  <path fill="#2d4356" d="M11 145.5H8a2 2 0 0 0 0 4h3a2 2 0 0 0 0-4zM160 145.5h-3a2 2 0 0 0 0 4h3a2 2 0 0 0 0-4z"></path>
  <circle cx="166" cy="147.5" r="2" fill="#2d4356"></circle>
  <path fill="#0bceb2" d="M118.15387 153.5h-8.30774a2.00641 2.00641 0 0 0 0 4h8.30774a2.00641 2.00641 0 0 0 0-4zM58.15387 153.5H49.84613a2.00641 2.00641 0 0 0 0 4h8.30774a2.00641 2.00641 0 0 0 0-4zM104 153.5H64a2 2 0 0 0 0 4H79.94v2H72a2 2 0 0 0 0 4H97a2 2 0 0 0 0-4H88.06v-2H104a2 2 0 0 0 0-4z"></path>
  <circle cx="2" cy="147.5" r="2" fill="#2d4356"></circle>
  <path fill="#2d4356" d="M11 145.5H8a2 2 0 0 0 0 4h3a2 2 0 0 0 0-4zM160 145.5h-3a2 2 0 0 0 0 4h3a2 2 0 0 0 0-4z"></path>
  <circle cx="166" cy="147.5" r="2" fill="#2d4356"></circle>
  <path fill="#0bceb2" d="M118.15387 153.5h-8.30774a2.00641 2.00641 0 0 0 0 4h8.30774a2.00641 2.00641 0 0 0 0-4zM58.15387 153.5H49.84613a2.00641 2.00641 0 0 0 0 4h8.30774a2.00641 2.00641 0 0 0 0-4zM104 153.5H64a2 2 0 0 0 0 4H79.94v2H72a2 2 0 0 0 0 4H97a2 2 0 0 0 0-4H88.06v-2H104a2 2 0 0 0 0-4z"></path>
  <circle cx="2" cy="147.5" r="2" fill="#2d4356"></circle>
  <path fill="#2d4356" d="M11 145.5H8a2 2 0 0 0 0 4h3a2 2 0 0 0 0-4zM160 145.5h-3a2 2 0 0 0 0 4h3a2 2 0 0 0 0-4z"></path>
  <circle cx="166" cy="147.5" r="2" fill="#2d4356"></circle>
  <path fill="#0bceb2" d="M118.15387 153.5h-8.30774a2.00641 2.00641 0 0 0 0 4h8.30774a2.00641 2.00641 0 0 0 0-4zM58.15387 153.5H49.84613a2.00641 2.00641 0 0 0 0 4h8.30774a2.00641 2.00641 0 0 0 0-4zM104 153.5H64a2 2 0 0 0 0 4H79.94v2H72a2 2 0 0 0 0 4H97a2 2 0 0 0 0-4H88.06v-2H104a2 2 0 0 0 0-4z"></path>
  <circle cx="2" cy="147.5" r="2" fill="#2d4356"></circle>
  <path fill="#2d4356" d="M11 145.5H8a2 2 0 0 0 0 4h3a2 2 0 0 0 0-4zM160 145.5h-3a2 2 0 0 0 0 4h3a2 2 0 0 0 0-4z"></path>
  <circle cx="166" cy="147.5" r="2" fill="#2d4356"></circle>
  <path fill="#0bceb2" d="M118.15387 153.5h-8.30774a2.00641 2.00641 0 0 0 0 4h8.30774a2.00641 2.00641 0 0 0 0-4zM58.15387 153.5H49.84613a2.00641 2.00641 0 0 0 0 4h8.30774a2.00641 2.00641 0 0 0 0-4zM104 153.5H64a2 2 0 0 0 0 4H79.94v2H72a2 2 0 0 0 0 4H97a2 2 0 0 0 0-4H88.06v-2H104a2 2 0 0 0 0-4zM94 125.5H74a2 2 0 0 0 0 4H94a2 2 0 0 0 0-4z"></path>
  <circle cx="40" cy="127.5" r="2" fill="#0bceb2"></circle>
  <circle cx="32" cy="127.5" r="2" fill="#0bceb2"></circle>
  <path fill="#0bceb2" d="M52.62744 79.33789a1.99925 1.99925 0 0 0-2.79-.46582l-14 10a2.00107 2.00107 0 0 0 0 3.25586l14 10a2.00045 2.00045 0 0 0 2.3252-3.25586L40.44092 90.5 52.1626 82.12793A2.00007 2.00007 0 0 0 52.62744 79.33789zM74.1626 88.87207l-14-10a2.00045 2.00045 0 0 0-2.3252 3.25586L69.55908 90.5 57.8374 98.87207a2.00045 2.00045 0 0 0 2.3252 3.25586l14-10a2.00107 2.00107 0 0 0 0-3.25586zM98.62793 79.33789a2 2 0 0 0-2.79-.46582l-14 10a2.00039 2.00039 0 0 0 0 3.25586l14 10a2.00016 2.00016 0 1 0 2.32422-3.25586L86.44141 90.5l11.7207-8.37207A2.00027 2.00027 0 0 0 98.62793 79.33789zM132.16211 88.87207l-14-10a2.00016 2.00016 0 0 0-2.32422 3.25586L127.55859 90.5l-11.7207 8.37207a2.00016 2.00016 0 0 0 2.32422 3.25586l14-10a2.00039 2.00039 0 0 0 0-3.25586zM111.74316 78.64258a2.0003 2.0003 0 0 0-2.60059 1.11426l-8 20a2.00058 2.00058 0 1 0 3.71484 1.48633l8-20A2.00123 2.00123 0 0 0 111.74316 78.64258z"></path>
  <path fill="#2d4356" d="M150.72131,145.5H94v-8h48a6.00656,6.00656,0,0,0,6-6v-70a6.00656,6.00656,0,0,0-6-6H26a6.00656,6.00656,0,0,0-6,6v70a6.00656,6.00656,0,0,0,6,6H74v8H17.27869a2.017,2.017,0,1,0,0,4H150.72131a2.017,2.017,0,1,0,0-4ZM24,61.5a2.00229,2.00229,0,0,1,2-2H142a2.00261,2.00261,0,0,1,2,2v56H24Zm2,72a2.00229,2.00229,0,0,1-2-2v-10H144v10a2.00261,2.00261,0,0,1-2,2Zm52,12v-8H90v8Z"></path>
</svg>
